<svg width="723" height="692" viewBox="0 0 723 692" fill="none" xmlns="http://www.w3.org/2000/svg">
<path d="M620.945 463.962C596.91 500.42 555.701 521.85 512.033 521.85H149.592C76.742 521.85 35.891 436.674 83.137 388.712C130.382 340.749 88.6514 299.785 161.525 261.325C232.125 224.063 256.229 303.489 321.267 251.518C386.307 199.55 480.996 204.452 501.8 257.402C522.603 310.352 517.702 328.986 561.826 340.752C605.951 352.516 649.095 419.194 622.62 461.358C622.069 462.236 621.51 463.104 620.945 463.962Z" fill="#CBD5FC"/>
<path d="M604.833 478.741C566.651 481.98 540.912 553.55 445.463 510.532C445.463 510.532 455.944 479.288 502.895 459.813C549.844 440.338 604.833 478.741 604.833 478.741Z" fill="#C8DDF5"/>
<path d="M458.496 505.173C468.461 499.992 478.797 495.525 489.353 491.64C491.979 490.631 494.642 489.723 497.314 488.838C499.974 487.917 502.668 487.101 505.358 486.269C508.038 485.405 510.767 484.703 513.486 483.966C514.846 483.604 516.202 483.22 517.569 482.877L521.679 481.891L525.8 480.946L529.95 480.129L534.101 479.314C535.485 479.049 536.882 478.843 538.276 478.63C541.068 478.219 543.848 477.75 546.66 477.481C549.468 477.19 552.26 476.785 555.085 476.68C566.329 475.864 577.699 476.048 588.786 477.925C577.555 477.653 566.42 478.318 555.377 479.679L553.304 479.914L551.242 480.231L547.113 480.834C544.357 481.187 541.627 481.74 538.891 482.235C537.526 482.502 536.149 482.694 534.786 482.977L530.701 483.825L526.617 484.675L522.557 485.648L518.488 486.578C517.134 486.902 515.791 487.269 514.442 487.611L510.397 488.657C509.047 488.999 507.718 489.417 506.37 489.771C503.682 490.508 500.99 491.229 498.327 492.058C495.66 492.869 492.975 493.629 490.318 494.482C479.659 497.802 469.095 501.457 458.496 505.173Z" fill="#ACBED3"/>
<path d="M609.506 356.945C562.918 390.246 584.469 501.848 428.998 519.421C428.998 519.421 418.619 471.277 464.082 410.423C509.544 349.569 609.506 356.945 609.506 356.945Z" fill="#6C83DC"/>
<path d="M439.342 505.974C446.123 491.284 454.492 477.312 463.908 464.087C473.296 450.834 483.823 438.363 495.288 426.813C506.768 415.286 519.206 404.654 532.666 395.477C546.084 386.303 560.56 378.409 576 373.49C561.67 381.005 548.391 389.937 535.778 399.733C523.213 409.583 511.331 420.266 500.074 431.58C488.809 442.892 478.194 454.848 468.09 467.263C458.019 479.712 448.552 492.671 439.342 505.974Z" fill="#C8DDF5"/>
<path d="M106.942 468.795C144.802 474.714 165.436 547.919 263.678 511.728C263.678 511.728 255.423 479.824 209.961 457.092C164.498 434.359 106.942 468.795 106.942 468.795Z" fill="#C8DDF5"/>
<path d="M251.053 505.465C240.742 501.014 230.461 496.623 220.063 492.559C217.472 491.522 214.848 490.575 212.245 489.578C209.647 488.563 207.01 487.655 204.383 486.731C203.063 486.283 201.767 485.772 200.444 485.336L196.483 484.008C195.162 483.571 193.847 483.111 192.52 482.692L188.527 481.477L184.545 480.221L180.53 479.086L176.515 477.952C175.176 477.573 173.816 477.285 172.474 476.922C169.779 476.236 167.095 475.492 164.37 474.946L160.294 474.053L158.258 473.592L156.209 473.213C145.288 471.076 134.227 469.629 123.006 469.109C134.197 468.02 145.552 468.635 156.711 470.241C159.521 470.545 162.278 471.145 165.058 471.634C167.844 472.101 170.584 472.764 173.34 473.371C174.716 473.68 176.094 473.984 177.457 474.345L181.539 475.451L185.622 476.558L189.666 477.791L193.697 479.065C195.036 479.502 196.361 479.982 197.693 480.438C200.354 481.365 203.025 482.259 205.639 483.308C208.264 484.328 210.894 485.331 213.482 486.438C216.084 487.508 218.677 488.601 221.226 489.793C231.482 494.412 241.478 499.595 251.053 505.465Z" fill="#ACBED3"/>
<path d="M132.109 351.819C174.061 386.519 146.151 490.912 292.414 517.985C292.414 517.985 305.479 473.024 266.44 412.27C227.4 351.516 132.109 351.819 132.109 351.819Z" fill="#6C83DC"/>
<path d="M283.504 504.542C275.599 491.338 267.46 478.439 258.724 465.977C249.954 453.546 240.685 441.509 230.764 430.033C220.852 418.555 210.312 407.629 199.078 397.431C187.795 387.284 175.831 377.9 162.775 369.754C177.12 375.39 190.351 383.821 202.482 393.406C214.657 402.995 225.754 413.909 235.874 425.617C245.978 437.342 255.123 449.887 263.12 463.102C271.147 476.293 278.119 490.125 283.504 504.542Z" fill="#C8DDF5"/>
<path d="M378.821 449.003C373.569 455.24 368.81 465.579 365.856 467.221C362.902 468.862 357.921 469.432 353.213 484.584C348.506 499.734 372.27 497.66 372.27 497.66C372.27 497.66 382.432 491.824 386.535 477.725L396.71 468.698L378.821 449.003Z" fill="#FFA498"/>
<path d="M360.438 495.999C360.438 495.999 368.13 493.494 374.654 486.604C381.202 479.687 382.047 467.38 382.047 467.38L385.183 473.241L391.457 466.536L394.481 466.244L396.711 468.698L386.535 477.725C382.432 491.824 372.271 497.661 372.271 497.661C372.271 497.661 365.72 498.228 360.179 496.578C360.321 496.22 360.438 495.999 360.438 495.999Z" fill="#C57E75"/>
<path d="M414.449 394.738C407.17 400.06 402.827 403.921 399.208 411.159C395.588 418.397 372.906 444.404 371.459 446.724C370.01 449.043 384.206 473.654 395.567 479.687C395.567 479.687 412.72 459.9 422.613 452.421C432.506 444.94 429.129 418.397 424.544 409.47C419.959 400.542 414.449 394.738 414.449 394.738Z" fill="#DC466F"/>
<path d="M414.184 442.63V427.856C414.184 427.856 416.109 427.085 417.612 432.071C418.211 434.066 418.166 436.164 417.898 437.969L428.942 429.664C429.398 438.961 427.906 448.42 422.613 452.421C412.72 459.9 395.568 479.687 395.568 479.687C392.636 478.131 389.517 475.334 386.526 472.006C393.511 465.052 406.762 451.628 414.184 442.63Z" fill="#D12050"/>
<path d="M343.62 491.824C341.731 492.414 340.336 493.317 340.336 495.696C340.336 498.076 340.746 501.851 341.649 503.327C342.552 504.805 347.212 505.69 347.212 505.69C347.212 505.69 346.901 495.86 345.916 494.055C344.931 492.249 343.62 491.824 343.62 491.824Z" fill="#FFA498"/>
<path d="M341.648 503.328C341.395 502.913 341.183 502.306 341.006 501.609C342.017 502.603 342.357 502.611 343.595 502.741L347.134 503.845C347.188 504.951 347.212 505.69 347.212 505.69C347.212 505.69 342.551 504.805 341.648 503.328Z" fill="#C57E75"/>
<path d="M348.131 488.229C345.833 488.475 343.535 490.199 343.535 492.578C343.535 494.957 342.716 501.605 343.535 502.672C344.357 503.738 348.378 506.774 349.772 507.021C351.167 507.267 353.536 506.856 353.213 506.117C352.891 505.38 348.131 488.229 348.131 488.229Z" fill="#FFA498"/>
<path d="M343.187 500.885C344.928 502.852 349.383 502.675 349.383 502.675C349.383 502.675 351.341 504.766 351.583 505.438C351.728 505.844 352.53 506.378 352.639 506.792C351.904 507.072 350.646 507.176 349.772 507.022C348.403 506.78 344.52 503.862 343.595 502.742L343.187 500.89V500.885Z" fill="#C57E75"/>
<path d="M356.74 484.303C349.69 484.701 348.377 485.357 348.131 488.229C347.884 491.1 348.049 499.471 348.95 501.605C349.854 503.738 350.346 505.626 351.495 506.774C352.644 507.923 354.363 507.927 354.363 507.927C354.363 507.927 358.224 502.262 358.388 497.502C358.552 492.742 356.74 484.303 356.74 484.303Z" fill="#FFA498"/>
<path d="M352.685 503.212C353.043 501.264 353.836 499.186 353.936 492.663C353.974 490.213 356.246 503.009 355.232 506.521C354.726 507.392 354.363 507.927 354.363 507.927C354.363 507.927 352.645 507.923 351.496 506.773C350.347 505.625 349.855 503.737 348.951 501.605C348.893 501.465 348.838 501.298 348.785 501.11C349.245 502.307 350.706 503.092 352.685 503.212Z" fill="#C57E75"/>
<path d="M372.175 498.733C371.732 502.654 366.595 504.066 366.02 506.035C365.446 508.005 365.856 509.811 364.872 510.302C363.887 510.796 359.784 508.498 359.949 505.873C359.949 505.873 358.881 508.088 356.501 508.498C354.122 508.908 353.547 507.17 353.958 504.551C354.368 501.933 354.286 500.538 354.204 497.42C354.122 494.301 353.383 491.43 354.778 487.982C356.173 484.537 358.061 481.5 361.836 482.075C365.61 482.649 367.908 487.408 369.959 489.05C372.011 490.69 372.667 494.384 372.175 498.733Z" fill="#FFA498"/>
<path d="M359.948 505.872C360.178 500.885 360.438 496.803 360.438 495.999C360.438 495.194 360.178 489.901 362.06 489.58C362.345 489.531 366.483 492.153 366.563 493.922C366.644 495.692 366.563 498.87 365.277 499.774C363.99 500.68 359.948 505.872 359.948 505.872Z" fill="#C57E75"/>
<path d="M530.954 405.369C523.474 395.878 520.9 394.913 513.179 390.409C505.457 385.904 476.18 374.483 470.147 373.035C464.115 371.587 439.786 382.928 431.802 386.548C423.82 390.167 413.661 393.728 411.931 397.256C406.136 409.064 417.611 425.798 417.672 460.867C417.704 479.233 421.889 520.536 421.889 520.536C421.889 520.536 513.822 520.708 515.109 518.777C516.396 516.846 519.614 450.893 521.222 437.38C522.831 423.868 530.954 405.369 530.954 405.369Z" fill="#DC466F"/>
<path d="M412.268 415.744C411.579 413.523 411.17 411.262 410.825 408.993C410.511 406.718 410.263 404.435 410.297 402.11C410.988 404.329 411.398 406.591 411.739 408.861C412.053 411.136 412.3 413.419 412.268 415.744Z" fill="#D12050"/>
<path d="M446.647 401.93C443.095 400.603 434.68 402.911 433.141 403.446C431.603 403.981 434.046 397.406 434.951 396.592C435.855 395.777 437.304 393.881 440.079 394.739C442.854 395.597 445.186 398.773 445.588 399.819C445.99 400.864 446.647 401.93 446.647 401.93Z" fill="#D12050"/>
<path d="M476.241 407.419C474.975 407.359 467.584 403.96 465.816 403.116C464.046 402.271 456.03 401.877 450.647 403.381C450.647 403.381 461.01 396.38 467.042 396.44C473.074 396.501 475.367 398.671 475.849 400.603C476.332 402.533 476.241 407.419 476.241 407.419Z" fill="#D12050"/>
<path d="M436.721 505.747C437.708 504.782 497.748 506.713 498.955 500.439C500.16 494.166 500.991 482.755 500.991 482.755C493.763 486.617 483.27 485.009 483.27 485.009C490.267 482.724 500.402 471.242 500.884 467.864C502.372 457.457 496.811 428.766 496.811 428.766L500.884 420.57L505.651 417.915C505.651 417.915 514.687 422.416 522.415 430.695C521.894 432.987 521.476 435.245 521.222 437.38C519.706 450.12 516.759 509.463 515.349 517.829C496.753 518.515 463.042 519.749 440.486 520.524C429.557 520.551 421.888 520.536 421.888 520.536C421.888 520.536 421.748 515.104 421.419 507.312C427.711 506.945 436.11 506.345 436.721 505.747Z" fill="#D12050"/>
<path d="M448.914 403.678C455.392 402.898 465.804 397.284 469.907 399.215C474.009 401.145 474.973 406.091 475.818 406.936C476.662 407.78 480.282 403.557 480.282 393.183C480.282 382.806 480.6 372.182 472.961 370.739C465.322 369.294 445.536 376.774 441.554 379.79C437.573 382.806 435.883 385.862 434.799 388.798C433.712 391.734 430.817 403.557 432.144 403.678C433.471 403.8 437.211 396.078 439.986 395.836C442.761 395.595 447.16 403.89 448.914 403.678Z" fill="#DC466F"/>
<path d="M445.228 394.39C443.576 390.469 441.767 387.03 441.827 384.316C441.888 381.601 442.49 379.731 445.507 378.887C448.522 378.042 449.79 379.67 449.971 383.773C450.151 387.875 445.228 394.39 445.228 394.39Z" fill="#D12050"/>
<path d="M468.879 387.079C475.185 381.36 475.899 374.965 475.307 373.638C474.714 372.311 472.11 371.345 472.11 371.345C472.11 371.345 471.085 375.508 471.688 376.534C472.29 377.558 468.879 387.079 468.879 387.079Z" fill="#D12050"/>
<path d="M458.841 400.908C460.377 400.218 461.981 399.68 463.616 399.236C465.259 398.837 466.946 398.518 468.7 398.632C469.565 398.696 470.494 398.886 471.268 399.498C471.951 400.142 472.469 400.724 473.049 401.385C474.198 402.69 474.99 404.274 475.718 405.763C475.878 406.106 476.133 406.51 476.244 406.546C476.258 406.55 476.252 406.572 476.382 406.49C476.491 406.414 476.618 406.282 476.733 406.137C477.203 405.536 477.589 404.785 477.965 404.053C478.724 402.61 479.132 401.008 479.455 399.378C479.769 397.747 479.951 396.081 480.068 394.413C480.211 392.743 480.259 391.065 480.281 389.382C480.613 392.732 480.619 396.125 480.154 399.496C479.929 401.176 479.508 402.873 478.749 404.439C478.375 405.207 477.994 405.966 477.44 406.7C477.293 406.882 477.135 407.065 476.902 407.234C476.79 407.318 476.637 407.397 476.454 407.441C476.263 407.486 476.033 407.456 475.862 407.375C475.516 407.202 475.37 406.97 475.23 406.773C475.097 406.571 474.991 406.373 474.893 406.179C474.163 404.651 473.439 403.191 472.377 401.944C471.869 401.326 471.273 400.645 470.75 400.119C470.203 399.664 469.421 399.437 468.63 399.339C467.024 399.148 465.346 399.371 463.714 399.678C462.068 399.967 460.45 400.415 458.841 400.908Z" fill="#D12050"/>
<path d="M443.986 398.744C443.286 398.125 442.591 397.507 441.833 396.993C441.459 396.736 441.075 396.49 440.68 396.321C440.48 396.245 440.288 396.186 440.108 396.162C440.028 396.171 439.943 396.163 439.88 396.184C439.821 396.222 439.786 396.207 439.672 396.292C438.116 397.251 436.906 398.569 435.878 400.077C435.355 400.805 434.897 401.638 434.281 402.393C433.972 402.767 433.645 403.13 433.228 403.453C433.011 403.603 432.791 403.778 432.402 403.824C432.216 403.856 431.955 403.775 431.798 403.635C431.64 403.492 431.561 403.327 431.515 403.188C431.345 402.616 431.4 402.141 431.445 401.657C431.504 401.181 431.588 400.715 431.696 400.257C431.927 399.343 432.182 398.446 432.51 397.569C432.385 398.495 432.219 399.41 432.143 400.332C432.091 400.789 432.056 401.246 432.049 401.696C432.047 402.134 432.056 402.615 432.188 402.928C432.217 403.007 432.262 403.049 432.277 403.06C432.3 403.058 432.277 403.068 432.323 403.054C432.401 403.046 432.583 402.942 432.73 402.814C433.037 402.553 433.327 402.211 433.592 401.853C434.136 401.152 434.572 400.344 435.118 399.551C435.667 398.776 436.268 398.025 436.965 397.356C437.662 396.689 438.468 396.117 439.302 395.676C439.379 395.623 439.573 395.553 439.731 395.508C439.89 395.477 440.046 395.494 440.195 395.503C440.475 395.56 440.718 395.66 440.943 395.779C441.381 396.028 441.755 396.327 442.113 396.642C442.803 397.294 443.439 397.984 443.986 398.744Z" fill="#D12050"/>
<path d="M444.343 370.822C444.357 373.371 444.459 375.913 444.723 378.449C445.374 384.67 444.737 392.875 445.229 394.389C445.778 396.078 449.035 402.11 449.035 402.11C449.035 402.11 454.826 399.456 457.239 396.561C459.651 393.666 462.788 393.518 467.011 389.248C471.235 384.978 474.105 378.196 473.164 372.552C473.044 371.828 472.303 364.602 472.138 357.122C471.975 349.642 464.115 343.958 456.635 343.958C449.156 343.958 444.677 355.058 444.443 362.538C444.347 365.607 444.33 368.491 444.343 370.822Z" fill="#FFA498"/>
<path d="M472.138 357.122C472.303 364.603 473.043 371.829 473.164 372.552C473.455 374.297 473.38 376.152 473.014 378.006C471.359 378.311 450.057 378.825 444.537 376.255C444.411 374.448 444.354 372.637 444.343 370.822C444.33 368.491 444.347 365.608 444.443 362.539C444.543 359.368 445.407 355.549 446.937 352.198L464.461 345.987C468.763 348.282 472.034 352.328 472.138 357.122Z" fill="#C57E75"/>
<path d="M431.22 325.975C419.901 325.975 415.666 334.67 415.666 341.185C415.666 347.034 417.54 356.396 431.22 356.396C438.06 356.396 442.691 349.586 442.691 341.185C442.691 332.785 438.06 325.975 431.22 325.975Z" fill="#524787"/>
<path d="M430.72 329.7C422.173 329.7 418.975 336.265 418.975 341.186C418.975 345.601 420.389 352.672 430.72 352.672C435.886 352.672 439.382 347.53 439.382 341.186C439.382 334.842 435.886 329.7 430.72 329.7Z" fill="#38295C"/>
<path d="M416.94 331.109C417.608 335.075 419.572 336.591 420.449 341.937C421.325 347.283 418.987 355.053 422.474 361.82C425.962 368.587 431.601 377.483 434.859 377.859C438.117 378.235 464.211 373.827 473.016 356.319C475.543 351.293 480.945 331.585 476.323 319.552C471.7 307.519 464.181 296.492 446.805 296.157C429.429 295.823 413.396 310.09 416.94 331.109Z" fill="#FFA498"/>
<path d="M431.472 352.788C432.401 352.809 433.419 352.456 433.878 351.847C434.279 351.314 434.446 350.612 434.327 349.956C432.969 351.075 431.303 351.267 429.632 350.976C429.425 352.223 430.387 352.762 431.472 352.788Z" fill="#C57E75"/>
<path d="M462.212 331.109C461.55 326.984 458.794 324.603 458.794 324.603C458.794 324.603 452.152 321.846 447.015 321.345C441.876 320.844 436.613 319.34 436.613 319.34C436.613 319.34 438.243 323.465 440.999 325.224C440.999 325.224 428.719 324.603 424.834 320.969C424.834 320.969 425.586 323.964 426.338 325.975C426.338 325.975 420.323 325.354 418.444 322.974C418.444 322.974 416.94 328.217 416.94 331.109C416.94 331.109 409.714 321.219 411.552 313.367C413.389 305.514 415.895 302.506 415.895 302.506C415.895 302.506 410.716 303.007 407.875 302.506C407.875 302.506 414.559 296.658 419.572 292.816C424.584 288.972 439.621 288.806 439.621 288.806C439.621 288.806 438.451 284.796 439.787 278.447C439.787 278.447 446.22 287.887 453.029 290.769C459.838 293.651 458.92 293.407 466.14 295.228C473.359 297.05 480.221 301.671 483.103 305.555C485.985 309.44 489.119 313.45 490.998 314.077C490.998 314.077 486.486 313.45 484.232 311.57C484.232 311.57 487.992 320.113 483.021 331.109C478.05 342.104 465.594 338.851 463.179 336.424C460.765 333.996 462.212 331.109 462.212 331.109Z" fill="#4375F1"/>
<path d="M463.179 336.424C460.764 333.997 462.211 331.109 462.211 331.109C461.812 328.614 460.646 326.762 459.787 325.684C461.594 314.726 460.857 303.352 457.647 292.72C459.523 293.482 460.637 293.824 463.352 294.522C466.686 299.536 469.179 305.178 470.896 310.893C473.082 318.171 474.14 326.032 472.101 333.353C471.579 335.229 470.816 337.06 469.852 338.774C466.761 338.515 464.153 337.404 463.179 336.424Z" fill="#9A4234"/>
<path d="M466.581 327.025C466.581 327.025 467.44 299.541 453.029 290.77C453.029 290.77 464.181 289.517 470.572 300.669C476.963 311.822 476.531 321.387 476.37 326.748C476.209 332.108 466.581 327.025 466.581 327.025Z" fill="#524787"/>
<path d="M470.974 325.975C482.293 325.975 486.529 334.67 486.529 341.185C486.529 347.034 484.654 356.396 470.974 356.396C464.134 356.396 459.504 349.586 459.504 341.185C459.504 332.785 464.134 325.975 470.974 325.975Z" fill="#524787"/>
<path d="M464.872 341.186C464.872 333.729 469.795 327.683 475.868 327.683C481.94 327.683 486.529 333.729 486.529 341.186C486.529 348.644 481.94 354.689 475.868 354.689C469.795 354.689 464.872 348.644 464.872 341.186Z" fill="#C22373"/>
<path d="M469.836 341.185C469.836 336.11 473.185 331.996 477.318 331.996C481.451 331.996 484.801 336.11 484.801 341.185C484.801 346.261 481.451 350.375 477.318 350.375C473.185 350.375 469.836 346.261 469.836 341.185Z" fill="#D67AA8"/>
<path d="M442.284 356.396C439.226 358.08 429.235 358.642 428.556 358.548C427.876 358.455 429.271 366.041 431.718 366.321C434.165 366.603 439.059 365.947 441.098 363.982C443.136 362.018 442.284 356.396 442.284 356.396Z" fill="#C57E75"/>
<path d="M440.936 338.262C440.936 336.878 441.618 335.756 442.46 335.756C443.303 335.756 443.986 336.878 443.986 338.262C443.986 339.646 443.303 340.768 442.46 340.768C441.618 340.768 440.936 339.646 440.936 338.262Z" fill="#471052"/>
<path d="M423.491 339.431C423.491 338.047 424.078 336.925 424.802 336.925C425.526 336.925 426.113 338.047 426.113 339.431C426.113 340.815 425.526 341.937 424.802 341.937C424.078 341.937 423.491 340.815 423.491 339.431Z" fill="#471052"/>
<path d="M449.472 328.491C448.431 327.918 447.308 327.522 446.158 327.191C445.002 326.881 443.802 326.699 442.586 326.655C441.376 326.595 440.096 326.561 438.925 327.014C437.75 327.419 436.685 328.157 435.9 329.129L435.989 329.279C437.249 329.143 438.288 328.834 439.386 328.688C440.459 328.527 441.5 328.136 442.621 328.045C444.839 327.857 447.165 328.032 449.402 328.65L449.472 328.491Z" fill="#471052"/>
<path d="M419.081 331.73C419.625 331.519 420.197 331.387 420.766 331.322C421.334 331.245 421.902 331.217 422.464 331.211C423.03 331.202 423.594 331.405 424.145 331.27C424.424 331.207 424.709 331.153 424.999 331.032C425.292 330.933 425.59 330.803 425.911 330.579L425.929 330.406C425.383 329.874 424.766 329.646 424.14 329.533C423.507 329.414 422.88 329.668 422.272 329.834C421.661 329.994 421.063 330.207 420.499 330.495C419.947 330.801 419.405 331.122 418.975 331.594L419.081 331.73Z" fill="#471052"/>
<path d="M436.721 511.694C436.729 512.082 436.185 512.643 434.859 512.643H393.013C388.188 512.643 387.062 510.735 388.51 508.322C389.958 505.908 396.071 500.6 411.191 496.9C426.312 493.2 434.263 501.852 436.721 505.747C438.524 508.605 436.721 511.694 436.721 511.694Z" fill="#524787"/>
<path d="M388.154 509.046C388.986 511.813 420.915 510.371 420.915 510.371C420.915 510.371 417.677 505.997 414.099 505.872C410.519 505.747 408.778 506.991 403.979 507.817C399.179 508.642 402.737 505.864 402.737 505.864C402.737 505.864 399.346 505.112 397.966 504.042C397.966 504.042 405.875 501.706 409.193 501.162C412.509 500.62 420.956 500.981 422.041 501.162C422.809 501.29 426.707 499.027 431.415 500.164C434.045 502.085 435.784 504.261 436.722 505.747C438.525 508.604 436.722 511.693 436.722 511.693C436.728 512.081 436.185 512.643 434.859 512.643H393.014C388.684 512.643 387.34 511.105 388.154 509.046Z" fill="#38295C"/>
<path d="M524.721 485.531C524.721 485.531 494.964 490.133 478.834 493.019C463.555 495.753 450.361 496.941 446.622 496.215C442.881 495.492 430.092 490.787 425.99 489.098C421.888 487.409 413.684 486.443 409.462 487.771C405.239 489.098 401.78 490.546 400.091 490.546C398.403 490.546 398.724 493.281 400.976 493.843C403.229 494.406 405.239 494.327 405.239 494.327C405.239 494.327 397.598 498.509 396.23 498.911C394.864 499.313 396.484 501.805 398.333 501.645C398.333 501.645 396.714 502.61 397.276 503.575C397.84 504.541 401.86 504.541 401.86 504.541C401.86 504.541 396.955 506.954 401.056 507.919C405.159 508.883 410.065 504.299 412.076 503.897C414.087 503.495 418.751 503.737 421.004 505.426C423.256 507.114 432.908 514.917 446.098 510.252C446.098 510.252 535.631 513.879 544.558 513.879C553.486 513.879 558.878 505.989 556.015 490.787C553.153 475.585 547.603 464.245 547.603 464.245L516.717 466.416L524.721 485.531Z" fill="#FFA498"/>
<path d="M412.289 491.909C413.077 491.723 413.706 491.615 414.099 491.59C414.099 491.59 413.335 491.723 412.289 491.909Z" fill="#C57E75"/>
<path d="M405.239 494.326C405.239 494.326 403.229 494.406 400.977 493.844C400.343 493.686 399.869 493.352 399.542 492.959C402.047 494.067 405.13 493.36 406.818 492.958C407.884 492.704 410.5 492.227 412.289 491.91C410.497 492.33 407.873 493.152 405.239 494.326Z" fill="#C57E75"/>
<path d="M405.634 497.945C405.827 497.857 405.99 497.789 406.096 497.756C406.096 497.756 405.922 497.827 405.634 497.945Z" fill="#C57E75"/>
<path d="M396.246 500.702C396.275 500.728 397.158 501.507 399.017 500.697C400.566 500.025 404.324 498.481 405.633 497.945C403.986 498.693 399.522 501.213 398.333 501.645C397.511 501.716 396.736 501.263 396.246 500.702Z" fill="#C57E75"/>
<path d="M400.868 503.656C402.235 503.253 405.091 501.523 406.84 500.697C408.589 499.87 410.821 499.775 410.821 499.775C410.821 499.775 410.158 499.835 408.408 500.697C406.66 501.559 401.861 504.54 401.861 504.54C401.861 504.54 399.282 504.539 397.966 504.042C397.98 504.042 399.506 504.056 400.868 503.656Z" fill="#C57E75"/>
<path d="M426.325 505.626C428.857 507.195 436.338 509.246 440.802 508.402C445.266 507.557 446.231 503.817 446.231 503.817L447.479 507.839C447.479 507.839 509.571 509.609 522.199 509.04C534.682 508.48 554.152 508.195 556.694 500.698C555.997 509.401 551.282 513.879 544.559 513.879C535.631 513.879 446.098 510.252 446.098 510.252C432.908 514.917 423.257 507.114 421.004 505.426C419.132 504.021 415.597 503.619 413.3 503.755H413.301C416.726 502.555 423.791 504.058 426.325 505.626Z" fill="#C57E75"/>
<path d="M524.721 485.531C524.721 485.531 536.354 483.95 538.686 483.709L536.917 476.47L522.198 479.446L524.721 485.531Z" fill="#C57E75"/>
<path d="M555.811 465.268C556.249 466.402 555.971 467.675 555.102 468.523C549.696 473.803 542.597 480.994 535.298 482.1C527.335 483.306 514.063 483.789 513.339 482.1C512.615 480.411 509.962 458.936 505.136 448.078C500.31 437.22 497.173 431.67 495.966 425.396C494.76 419.122 505.618 404.403 510.444 403.196C515.27 401.99 526.37 401.266 530.954 405.369C535.539 409.47 538.917 425.155 544.225 436.979C548.509 446.519 553.892 460.301 555.811 465.268Z" fill="#DC466F"/>
<path d="M525.945 402.986C524.467 402.815 522.99 402.693 521.51 402.66C520.033 402.601 518.556 402.605 517.086 402.692C515.617 402.781 514.154 402.929 512.714 403.188C511.99 403.303 511.28 403.47 510.568 403.63C509.906 403.871 509.223 404.047 508.613 404.428C507.964 404.72 507.4 405.178 506.804 405.575C506.263 406.053 505.684 406.487 505.188 407.023C504.128 408.02 503.235 409.19 502.329 410.345C501.445 411.52 500.643 412.761 499.881 414.028C499.096 415.284 498.399 416.591 497.72 417.914C498.717 415.107 500.095 412.438 501.748 409.935C502.589 408.693 503.501 407.487 504.567 406.407C505.068 405.838 505.683 405.373 506.249 404.864C506.881 404.429 507.475 403.94 508.184 403.611C508.848 403.209 509.615 403.006 510.352 402.754C511.091 402.599 511.826 402.422 512.573 402.326C514.064 402.113 515.565 401.972 517.065 401.985C520.059 401.978 523.052 402.269 525.945 402.986Z" fill="#D12050"/>
<path d="M549.787 469.713C549.747 465.858 541.606 430.513 534.414 410.813C537.472 417.544 540.329 428.299 544.225 436.978C548.509 446.518 553.892 460.301 555.812 465.267C556.249 466.401 555.971 467.675 555.102 468.523C553.032 470.545 550.711 472.847 548.228 474.98C548.415 474.799 549.824 473.313 549.787 469.713Z" fill="#D12050"/>
<path d="M161.658 429.895C161.511 431.084 161.759 432.283 162.337 433.333C164.443 437.162 165.51 441.562 165.372 445.931C165.281 448.81 164.689 451.755 165.474 454.527C166.826 459.309 171.872 462.266 173.497 466.962C174.936 471.126 173.598 476.361 176.589 479.594C177.331 480.395 178.483 481.009 179.497 480.603C180.005 480.399 180.387 479.974 180.749 479.563C184.18 475.666 187.853 470.931 186.795 465.849C185.801 461.074 180.88 457.847 179.947 453.06C179.186 449.149 181.185 444.637 178.944 441.342C178.326 440.432 177.44 439.737 176.765 438.869C174.099 435.447 175.087 429.992 172.016 426.929C171.015 425.93 169.762 425.364 168.396 425.072C165.177 424.383 162.061 426.627 161.658 429.894V429.895Z" fill="#D35E5A"/>
<path d="M181.168 490.562C181.374 488.016 181.462 485.468 181.557 482.914C181.441 480.367 181.305 477.82 181.087 475.274C180.869 472.729 180.583 470.184 180.132 467.654C179.675 465.14 179.071 462.571 178.014 460.207C176.166 455.536 174.673 450.651 173.164 445.81L170.975 438.513C170.076 436.129 169.198 433.74 168.35 431.334C168.722 433.866 169.301 436.35 169.809 438.854L172.002 446.167C173.52 451.033 175 455.888 176.893 460.675C177.916 462.964 178.482 465.386 178.937 467.866C179.378 470.343 179.66 472.857 179.876 475.377C180.089 477.899 180.237 480.43 180.334 482.964L181.168 490.562Z" fill="#FFA8A5"/>
<path d="M167.723 438.939C168.143 439.575 168.684 440.052 169.265 440.473C169.563 440.673 169.913 440.804 170.239 440.968C170.569 441.126 170.857 441.339 171.125 441.58L171.24 441.686L171.344 441.528C171.587 441.155 171.882 440.811 172.114 440.434C172.339 440.054 172.575 439.68 172.774 439.287C173.163 438.496 173.451 437.655 173.598 436.745L173.526 436.709C172.89 437.377 172.395 438.114 172 438.902C171.807 439.299 171.652 439.713 171.484 440.121C171.324 440.535 171.228 440.979 171.08 441.396L171.299 441.344C170.989 441.159 170.7 440.947 170.452 440.678C170.2 440.417 169.973 440.121 169.694 439.896C169.121 439.465 168.506 439.09 167.772 438.876L167.723 438.939Z" fill="#FFA8A5"/>
<path d="M168.341 447.647C168.779 448.008 169.23 448.397 169.703 448.723C170.174 449.057 170.654 449.379 171.172 449.638C171.696 449.89 172.252 450.089 172.756 450.374C173.263 450.654 173.725 451.007 174.176 451.374L174.336 451.503L174.497 451.293C175.194 450.378 175.792 449.406 176.356 448.415C176.887 447.405 177.359 446.362 177.698 445.244L177.628 445.205C176.846 446.073 176.197 447.016 175.605 447.99C175.047 448.985 174.522 449.998 174.099 451.068L174.419 450.987C173.89 450.741 173.37 450.481 172.893 450.153C172.414 449.828 171.985 449.421 171.523 449.067C171.056 448.721 170.545 448.442 170.025 448.183C169.498 447.93 168.975 447.685 168.358 447.568L168.341 447.647Z" fill="#FFA8A5"/>
<path d="M171.436 459.139C171.915 459.622 172.45 459.979 173.002 460.301C173.546 460.636 174.145 460.859 174.781 461.008C175.417 461.163 175.992 461.443 176.504 461.835C177.016 462.223 177.515 462.65 178.026 462.986L178.413 463.239L178.7 462.808C179.123 462.174 179.508 461.519 179.806 460.815C180.106 460.114 180.372 459.392 180.52 458.608L180.432 458.559C179.848 459.105 179.381 459.715 178.949 460.344C178.515 460.972 178.167 461.648 177.858 462.346L178.532 462.168C177.948 461.847 177.327 461.661 176.713 461.446C176.098 461.235 175.538 460.93 175.033 460.51C174.531 460.083 173.98 459.746 173.376 459.525C172.776 459.293 172.156 459.104 171.478 459.048L171.436 459.139Z" fill="#FFA8A5"/>
<path d="M185.219 491.06C187.21 490.733 194.672 488.346 194.152 486.397C191.914 478.033 189.677 468.544 197.424 464.453C201.152 462.485 205.831 461.484 207.954 457.842C210.141 454.09 208.531 449.321 206.568 445.448C204.606 441.574 202.244 437.428 203.085 433.167C203.966 428.707 208.185 425.415 208.859 420.918C209.78 414.778 203.818 409.831 198.091 407.434C196.143 406.618 194.001 405.921 191.948 406.417C190.482 406.77 189.21 407.711 188.205 408.835C184.182 413.334 184.346 420.122 185.264 426.086C186.182 432.052 187.588 438.351 185.341 443.953C183.745 447.931 180.329 451.673 181.243 455.86C181.61 457.538 182.656 459.002 183.055 460.672C184.13 465.173 180.391 469.23 178.676 473.529C176.465 479.077 177.983 485.856 182.176 490.066C182.973 490.866 184.103 491.243 185.219 491.06Z" fill="#FF7571"/>
<path d="M184.515 491.153C184.976 487.842 185.437 484.543 186.027 481.268C186.167 480.449 186.339 479.634 186.471 478.815C186.595 477.996 186.669 477.169 186.805 476.351C187.052 474.712 187.327 473.078 187.64 471.455C188.272 468.209 189.028 464.979 190.137 461.908C190.693 460.378 191.354 458.881 192.224 457.591C192.657 456.948 193.168 456.377 193.734 455.992C194.48 455.503 195.191 454.872 195.747 454.12C196.895 452.599 197.24 450.667 197.2 448.927C197.161 447.162 196.827 445.476 196.454 443.831C195.687 440.546 194.722 437.374 194.185 434.143C193.64 430.928 193.533 427.635 194.383 424.551C194.643 423.798 194.849 423.032 195.097 422.266C195.349 421.503 195.678 420.762 196.048 420.036C196.791 418.584 197.761 417.232 198.835 415.946C197.519 416.979 196.297 418.173 195.279 419.554C194.767 420.24 194.288 420.963 193.881 421.73C193.459 422.489 193.103 423.297 192.917 424.149C191.988 427.525 192.121 431.058 192.686 434.393C193.245 437.745 194.227 440.967 194.974 444.171C195.338 445.772 195.648 447.38 195.681 448.951C195.714 450.518 195.411 452.048 194.526 453.218C194.088 453.804 193.539 454.302 192.893 454.727C192.078 455.285 191.474 455.995 190.974 456.728C189.98 458.205 189.295 459.789 188.71 461.386C187.555 464.588 186.792 467.872 186.149 471.166C185.831 472.814 185.553 474.468 185.302 476.124C185.189 476.955 185.034 477.778 184.934 478.611C184.849 479.444 184.812 480.283 184.758 481.12C184.577 484.466 184.453 487.809 184.515 491.153Z" fill="#FFA8A5"/>
<path d="M197.735 425.868C197.162 426.068 196.681 426.402 196.236 426.758C195.795 427.12 195.374 427.505 195.063 427.991C194.749 428.473 194.469 428.982 194.066 429.379C193.679 429.789 193.212 430.122 192.763 430.483L193.353 430.52C193.154 430.091 192.909 429.69 192.684 429.278C192.451 428.871 192.218 428.466 191.944 428.088C191.685 427.7 191.389 427.336 191.109 426.964C190.826 426.591 190.507 426.247 190.25 425.852L190.15 425.869C190.129 426.39 190.286 426.875 190.446 427.331C190.621 427.785 190.816 428.225 191.051 428.641C191.271 429.066 191.55 429.452 191.832 429.835C192.123 430.213 192.4 430.595 192.734 430.946L193.103 431.334L193.324 430.983C193.626 430.504 193.918 430.006 194.295 429.588C194.655 429.157 195.146 428.845 195.61 428.514C196.077 428.185 196.445 427.765 196.806 427.338C197.164 426.905 197.498 426.46 197.798 425.947L197.735 425.868Z" fill="#FFA8A5"/>
<path d="M190.499 438.532C190.736 439.102 191.045 439.622 191.39 440.109C191.743 440.59 192.11 441.059 192.531 441.478C192.961 441.888 193.455 442.238 193.917 442.615C194.37 443.001 194.769 443.435 195.131 443.909L195.247 444.06L195.409 443.93C196.012 443.451 196.49 443.014 196.965 442.503C197.415 441.989 197.894 441.501 198.313 440.967C198.736 440.436 199.129 439.884 199.503 439.318C199.881 438.752 200.22 438.162 200.614 437.61L200.557 437.526C199.896 437.839 199.381 438.322 198.87 438.783C198.369 439.257 197.902 439.76 197.471 440.287C197.034 440.812 196.664 441.387 196.259 441.932C195.864 442.465 195.53 443.128 195.155 443.595L195.433 443.616C194.975 443.241 194.562 442.818 194.207 442.343C193.861 441.859 193.55 441.343 193.186 440.88C192.813 440.425 192.388 440.016 191.964 439.607C191.535 439.204 191.077 438.824 190.578 438.471L190.499 438.532Z" fill="#FFA8A5"/>
<path d="M203.808 448.309C203.179 449.046 202.528 449.726 201.862 450.375C201.193 451.025 200.476 451.595 199.778 452.22C199.066 452.825 198.259 453.367 197.345 453.634C196.439 453.919 195.477 453.955 194.549 453.945L194.965 454.237C194.801 453.456 194.559 452.719 194.303 451.974C194.05 451.231 193.729 450.508 193.341 449.819C192.956 449.127 192.5 448.466 191.962 447.869C191.414 447.289 190.781 446.744 190.024 446.473L189.974 446.56C190.546 447.079 190.988 447.677 191.372 448.317C191.762 448.95 192.091 449.621 192.417 450.295L193.348 452.35C193.654 453.04 193.924 453.757 194.192 454.454L194.321 454.791L194.607 454.746C195.594 454.591 196.531 454.257 197.447 453.935C198.352 453.582 199.282 453.272 200.172 452.816C201.072 452.375 201.829 451.694 202.464 450.934C203.098 450.173 203.616 449.307 203.898 448.354L203.808 448.309Z" fill="#FFA8A5"/>
<path d="M185.81 455.791C185.505 456.523 185.401 457.322 185.421 458.113C185.455 458.902 185.579 459.698 185.856 460.443C186.147 461.182 186.574 461.861 187.05 462.477L188.444 464.328L188.543 464.46L188.703 464.346C189.457 463.81 190.314 463.404 191.131 462.978C191.947 462.54 192.793 462.164 193.639 461.805C194.484 461.44 195.329 461.071 196.196 460.745C197.057 460.391 197.943 460.11 198.843 459.772L198.828 459.672C196.909 459.63 194.97 460.037 193.205 460.815C192.32 461.201 191.487 461.697 190.682 462.22C189.879 462.756 189.163 463.401 188.461 464.066L188.721 464.084C188.205 463.54 187.735 462.939 187.435 462.249C187.101 461.575 186.936 460.841 186.707 460.155C186.262 458.769 185.979 457.342 185.909 455.814L185.81 455.791Z" fill="#FFA8A5"/>
<path d="M171.688 512.642H192.992C194.969 512.642 196.65 510.932 196.948 508.619L200.32 482.412C200.69 479.546 198.814 476.963 196.365 476.963H168.316C165.866 476.963 163.99 479.546 164.36 482.412L167.733 508.619C168.03 510.932 169.711 512.642 171.688 512.642Z" fill="#524787"/>
<path d="M168.316 476.965H182.655C180.205 476.965 178.33 479.547 178.699 482.413L182.071 508.621C182.369 510.935 184.051 512.643 186.027 512.643H171.688C169.711 512.643 168.03 510.935 167.733 508.621L164.36 482.413C163.99 479.547 165.866 476.965 168.316 476.965Z" fill="#38295C"/>
<path d="M362.524 505.445H273.422C272.525 505.445 271.798 506.172 271.798 507.07V511.017C271.798 511.914 272.525 512.642 273.422 512.642H362.524V505.445Z" fill="#3A4278"/>
<path d="M385.453 510.409V512.013C385.453 512.361 385.172 512.642 384.825 512.642H362.38C361.682 512.642 361.116 512.076 361.116 511.378V506.701C361.116 505.947 361.773 505.36 362.523 505.445L384.895 509.786C385.213 509.822 385.453 510.09 385.453 510.409Z" fill="#524787"/>
<path d="M206.81 354.005H373.339C376.709 354.005 379.715 356.119 380.857 359.289L417.276 460.429C418.799 465.645 414.983 469.553 408.85 470.214C407.91 470.315 403.437 468.304 396.413 465H247.535C244.166 465 241.159 462.887 240.017 459.717L207.118 368.353C201.556 365.45 198.385 363.791 198.385 363.791C198.385 363.791 196.325 354.005 206.81 354.005Z" fill="#636A98"/>
<path d="M368.125 359.219H201.596C199.232 359.219 197.582 361.565 198.383 363.79L234.803 464.93C235.945 468.1 238.953 470.213 242.322 470.213H408.849C411.216 470.213 412.864 467.867 412.063 465.641L375.644 364.502C374.502 361.332 371.494 359.219 368.125 359.219Z" fill="#838BC0"/>
<path d="M330.53 470.214L323.138 442.797L295.121 470.214H330.53Z" fill="#261B41"/>
<path d="M368.248 453.384L366.107 447.436H368.799L370.94 453.384H368.248Z" fill="#261B41"/>
<path d="M362.579 453.384L360.438 447.436H363.13L365.271 453.384H362.579Z" fill="#261B41"/>
<path d="M356.911 453.384L354.771 447.436H357.462L359.604 453.384H356.911Z" fill="#261B41"/>
<path d="M351.243 453.384L349.103 447.436H351.794L353.935 453.384H351.243Z" fill="#261B41"/>
<path d="M270.73 453.384L268.589 447.436H271.28L273.422 453.384H270.73Z" fill="#261B41"/>
<path d="M265.062 453.384L262.921 447.436H265.613L267.753 453.384H265.062Z" fill="#261B41"/>
<path d="M259.394 453.384L257.252 447.436H259.944L262.085 453.384H259.394Z" fill="#261B41"/>
<path d="M253.725 453.384L251.584 447.436H254.276L256.416 453.384H253.725Z" fill="#261B41"/>
<path d="M274.296 502.868C275.939 498.143 295.867 433.84 295.867 433.84H321.447L323.137 442.796C323.137 442.796 305.986 498.143 304.343 502.868C304.217 503.228 304.098 503.589 303.986 503.951H303.988C302.485 508.571 306.451 508.551 310.916 508.551H356.03V512.642H310.916H280.871C271.831 512.642 272.652 507.592 274.296 502.868Z" fill="#636A98"/>
<path d="M321.448 433.84C321.448 433.84 301.52 498.143 299.877 502.868C298.233 507.592 297.412 512.642 306.451 512.642H276.404C267.365 512.642 268.187 507.592 269.831 502.868C271.474 498.143 291.401 433.84 291.401 433.84H321.448Z" fill="#838BC0"/>
<path d="M315.184 433.84C313.202 433.749 311.22 433.704 309.238 433.639C307.257 433.571 305.275 433.556 303.293 433.513C301.311 433.481 299.329 433.423 297.347 433.422L291.402 433.386L291.07 433.384L290.967 433.705C290.139 436.295 289.322 438.889 288.543 441.494L286.173 449.298C284.647 454.519 283.119 459.738 281.726 464.999C283.556 459.874 285.253 454.707 286.954 449.541L289.422 441.766C290.256 439.178 291.052 436.579 291.836 433.975L291.402 434.295L297.347 434.258C299.329 434.258 301.311 434.2 303.293 434.168C305.275 434.125 307.257 434.11 309.238 434.042C311.22 433.977 313.202 433.932 315.184 433.84Z" fill="#8475D5"/>
<path d="M140.916 528.429H581.982C586.342 528.429 589.875 524.895 589.875 520.535C589.875 516.176 586.342 512.642 581.982 512.642H140.916C136.557 512.642 133.023 516.176 133.023 520.535C133.023 524.895 136.557 528.429 140.916 528.429Z" fill="#A14F58"/>
<path d="M140.916 528.429H581.982C586.342 528.429 589.875 524.895 589.875 520.535H133.023C133.023 524.895 136.557 528.429 140.916 528.429Z" fill="#713349"/>
<path d="M232.88 273.79C232.88 310.456 203.157 340.179 166.491 340.179C129.825 340.179 100.101 310.456 100.101 273.79C100.101 237.124 129.825 207.4 166.491 207.4C203.157 207.4 232.88 237.124 232.88 273.79Z" fill="#AEBAEA"/>
<path d="M261.079 260.81C261.079 282.132 278.364 299.418 299.686 299.418C321.008 299.418 338.293 282.132 338.293 260.81C338.293 239.488 321.008 222.203 299.686 222.203C278.364 222.203 261.079 239.488 261.079 260.81Z" fill="#E6B851"/>
<path d="M280.64 275.924H318.733C320.481 275.924 321.899 274.506 321.899 272.758V248.862C321.899 247.114 320.481 245.697 318.733 245.697H280.64C278.892 245.697 277.475 247.114 277.475 248.862V272.758C277.475 274.506 278.892 275.924 280.64 275.924Z" fill="#6C83DC"/>
<path d="M280.64 275.924H318.733C320.481 275.924 321.899 274.506 321.899 272.758L299.687 258.79L277.475 272.758C277.475 274.506 278.892 275.924 280.64 275.924Z" fill="#C8DDF5"/>
<path d="M280.64 245.697H318.733C320.481 245.697 321.899 247.114 321.899 248.862L299.687 262.83L277.475 248.862C277.475 247.114 278.892 245.697 280.64 245.697Z" fill="#4371D7"/>
<path d="M534.791 316.366C534.791 337.688 552.075 354.973 573.398 354.973C594.72 354.973 612.005 337.688 612.005 316.366C612.005 295.044 594.72 277.758 573.398 277.758C552.075 277.758 534.791 295.044 534.791 316.366Z" fill="#E6B851"/>
<path d="M566.797 317.892C563.506 317.892 560.841 315.225 560.841 311.934C560.841 308.645 563.506 305.977 566.797 305.977C570.087 305.977 572.754 308.645 572.754 311.934C572.754 315.225 570.087 317.892 566.797 317.892ZM584.226 308.817H580.344C579.993 307.285 579.389 305.855 578.579 304.563L581.327 301.816C581.701 301.441 581.701 300.834 581.327 300.458L578.273 297.405C577.899 297.031 577.291 297.031 576.916 297.405L574.169 300.153C572.877 299.342 571.446 298.738 569.915 298.387V294.506C569.915 293.976 569.486 293.546 568.956 293.546H564.638C564.109 293.546 563.679 293.976 563.679 294.506V298.387C562.148 298.738 560.717 299.342 559.424 300.153L556.678 297.405C556.304 297.031 555.695 297.031 555.321 297.405L552.268 300.458C551.894 300.834 551.894 301.441 552.268 301.816L555.015 304.563C554.205 305.855 553.601 307.285 553.249 308.817H549.368C548.838 308.817 548.409 309.247 548.409 309.776V314.094C548.409 314.623 548.838 315.053 549.368 315.053H553.249C553.601 316.584 554.205 318.014 555.015 319.307L552.268 322.054C551.894 322.429 551.894 323.036 552.268 323.411L555.321 326.463C555.695 326.839 556.304 326.839 556.678 326.463L559.424 323.716C560.717 324.527 562.148 325.131 563.679 325.482V329.364C563.679 329.893 564.109 330.323 564.638 330.323H568.956C569.486 330.323 569.915 329.893 569.915 329.364V325.482C571.446 325.131 572.877 324.527 574.169 323.716L576.916 326.463C577.291 326.839 577.899 326.839 578.273 326.463L581.327 323.411C581.701 323.036 581.701 322.429 581.327 322.054L578.579 319.307C579.389 318.014 579.993 316.584 580.344 315.053H584.226C584.757 315.053 585.185 314.623 585.185 314.094V309.776C585.185 309.247 584.757 308.817 584.226 308.817Z" fill="#6C83DC"/>
<path d="M566.797 316.998C564.001 316.998 561.734 314.73 561.734 311.934C561.734 309.138 564.001 306.872 566.797 306.872C569.593 306.872 571.86 309.138 571.86 311.934C571.86 314.73 569.593 316.998 566.797 316.998ZM566.797 303.642C562.218 303.642 558.505 307.355 558.505 311.934C558.505 316.515 562.218 320.226 566.797 320.226C571.376 320.226 575.09 316.515 575.09 311.934C575.09 307.355 571.376 303.642 566.797 303.642Z" fill="#4371D7"/>
<path d="M591.901 330.456C590.22 330.456 588.857 329.094 588.857 327.413C588.857 325.732 590.22 324.37 591.901 324.37C593.581 324.37 594.944 325.732 594.944 327.413C594.944 329.094 593.581 330.456 591.901 330.456ZM600.805 325.82H598.821C598.643 325.037 598.334 324.307 597.92 323.647L599.323 322.243C599.514 322.052 599.514 321.742 599.323 321.55L597.764 319.991C597.573 319.799 597.262 319.799 597.071 319.991L595.666 321.394C595.007 320.98 594.276 320.672 593.494 320.492V318.509C593.494 318.239 593.274 318.02 593.003 318.02H590.798C590.527 318.02 590.307 318.239 590.307 318.509V320.492C589.526 320.672 588.795 320.98 588.135 321.394L586.731 319.991C586.539 319.799 586.229 319.799 586.037 319.991L584.479 321.55C584.287 321.742 584.287 322.052 584.479 322.243L585.881 323.647C585.468 324.307 585.159 325.037 584.98 325.82H582.997C582.726 325.82 582.507 326.04 582.507 326.31V328.515C582.507 328.786 582.726 329.006 582.997 329.006H584.98C585.159 329.788 585.468 330.519 585.881 331.179L584.479 332.583C584.287 332.774 584.287 333.085 584.479 333.276L586.037 334.836C586.229 335.027 586.539 335.027 586.731 334.836L588.135 333.432C588.795 333.846 589.526 334.155 590.307 334.334V336.317C590.307 336.587 590.527 336.807 590.798 336.807H593.003C593.274 336.807 593.494 336.587 593.494 336.317V334.334C594.276 334.155 595.007 333.846 595.666 333.432L597.071 334.836C597.262 335.027 597.573 335.027 597.764 334.836L599.323 333.276C599.514 333.085 599.514 332.774 599.323 332.583L597.92 331.179C598.334 330.519 598.643 329.788 598.821 329.006H600.805C601.076 329.006 601.295 328.786 601.295 328.515V326.31C601.295 326.04 601.076 325.82 600.805 325.82Z" fill="#6C83DC"/>
<path d="M591.902 330C590.472 330 589.314 328.842 589.314 327.414C589.314 325.984 590.472 324.826 591.902 324.826C593.33 324.826 594.488 325.984 594.488 327.414C594.488 328.842 593.33 330 591.902 330ZM591.902 323.177C589.562 323.177 587.665 325.073 587.665 327.414C587.665 329.752 589.562 331.649 591.902 331.649C594.24 331.649 596.137 329.752 596.137 327.414C596.137 325.073 594.24 323.177 591.902 323.177Z" fill="#4371D7"/>
<path d="M360.619 207.012C360.619 228.335 377.904 245.62 399.226 245.62C420.548 245.62 437.833 228.335 437.833 207.012C437.833 185.69 420.548 168.405 399.226 168.405C377.904 168.405 360.619 185.69 360.619 207.012Z" fill="#E3E4EB"/>
<path d="M377.014 196.817H421.439V191.92C421.439 190.233 420.072 188.867 418.386 188.867H380.067C378.38 188.867 377.014 190.233 377.014 191.92V196.817Z" fill="#4371D7"/>
<path d="M402.03 205.392H404.413C404.818 205.392 405.146 205.064 405.146 204.659V202.275C405.146 201.87 404.818 201.543 404.413 201.543H402.03C401.626 201.543 401.297 201.87 401.297 202.275V204.659C401.297 205.064 401.626 205.392 402.03 205.392Z" fill="#6C83DC"/>
<path d="M392.873 205.392H395.256C395.662 205.392 395.989 205.064 395.989 204.659V202.275C395.989 201.87 395.662 201.543 395.256 201.543H392.873C392.469 201.543 392.141 201.87 392.141 202.275V204.659C392.141 205.064 392.469 205.392 392.873 205.392Z" fill="#6C83DC"/>
<path d="M383.715 205.392H386.099C386.504 205.392 386.832 205.064 386.832 204.659V202.275C386.832 201.87 386.504 201.543 386.099 201.543H383.715C383.311 201.543 382.982 201.87 382.982 202.275V204.659C382.982 205.064 383.311 205.392 383.715 205.392Z" fill="#6C83DC"/>
<path d="M411.188 213.277H413.571C413.976 213.277 414.304 212.949 414.304 212.545V210.161C414.304 209.756 413.976 209.429 413.571 209.429H411.188C410.783 209.429 410.455 209.756 410.455 210.161V212.545C410.455 212.949 410.783 213.277 411.188 213.277Z" fill="#6C83DC"/>
<path d="M402.03 213.277H404.413C404.818 213.277 405.146 212.949 405.146 212.545V210.161C405.146 209.756 404.818 209.429 404.413 209.429H402.03C401.626 209.429 401.297 209.756 401.297 210.161V212.545C401.297 212.949 401.626 213.277 402.03 213.277Z" fill="#6C83DC"/>
<path d="M392.873 213.277H395.256C395.662 213.277 395.989 212.949 395.989 212.545V210.161C395.989 209.756 395.662 209.429 395.256 209.429H392.873C392.469 209.429 392.141 209.756 392.141 210.161V212.545C392.141 212.949 392.469 213.277 392.873 213.277Z" fill="#6C83DC"/>
<path d="M383.715 213.277H386.099C386.504 213.277 386.832 212.949 386.832 212.545V210.161C386.832 209.756 386.504 209.429 386.099 209.429H383.715C383.311 209.429 382.982 209.756 382.982 210.161V212.545C382.982 212.949 383.311 213.277 383.715 213.277Z" fill="#6C83DC"/>
<path d="M411.188 221.163H413.571C413.976 221.163 414.304 220.835 414.304 220.43V218.046C414.304 217.641 413.976 217.313 413.571 217.313H411.188C410.783 217.313 410.455 217.641 410.455 218.046V220.43C410.455 220.835 410.783 221.163 411.188 221.163Z" fill="#6C83DC"/>
<path d="M402.03 221.163H404.413C404.818 221.163 405.146 220.835 405.146 220.43V218.046C405.146 217.641 404.818 217.313 404.413 217.313H402.03C401.626 217.313 401.297 217.641 401.297 218.046V220.43C401.297 220.835 401.626 221.163 402.03 221.163Z" fill="#6C83DC"/>
<path d="M392.873 221.163H395.256C395.662 221.163 395.989 220.835 395.989 220.43V218.046C395.989 217.641 395.662 217.313 395.256 217.313H392.873C392.469 217.313 392.141 217.641 392.141 218.046V220.43C392.141 220.835 392.469 221.163 392.873 221.163Z" fill="#6C83DC"/>
<path d="M548.354 226.853C548.354 248.175 531.069 265.46 509.747 265.46C488.425 265.46 471.141 248.175 471.141 226.853C471.141 205.53 488.425 188.245 509.747 188.245C531.069 188.245 548.354 205.53 548.354 226.853Z" fill="#FF7571"/>
<path d="M511.963 249.382V245.771C511.963 245.099 511.419 244.555 510.748 244.555H508.745C508.073 244.555 507.529 245.099 507.529 245.771V249.382C496.797 248.339 488.261 239.802 487.217 229.071H490.828C491.5 229.071 492.044 228.526 492.044 227.855V225.851C492.044 225.18 491.5 224.636 490.828 224.636H487.217C488.261 213.904 496.797 205.367 507.529 204.323V207.935C507.529 208.606 508.073 209.15 508.745 209.15H510.748C511.419 209.15 511.963 208.606 511.963 207.935V204.323C522.696 205.367 531.232 213.904 532.276 224.636H528.665C527.994 224.636 527.449 225.18 527.449 225.851V227.855C527.449 228.526 527.994 229.071 528.665 229.071H532.276C531.232 239.802 522.696 248.339 511.963 249.382ZM509.747 200.41C495.142 200.41 483.303 212.248 483.303 226.853C483.303 241.457 495.142 253.296 509.747 253.296C524.351 253.296 536.19 241.457 536.19 226.853C536.19 212.248 524.351 200.41 509.747 200.41Z" fill="#CC3834"/>
<path d="M491.551 188.596C491.551 186.296 492.171 184.54 493.411 183.326C494.483 182.254 495.891 181.718 497.635 181.718C499.236 181.718 500.599 182.318 501.723 183.519C502.859 184.721 503.428 186.122 503.428 187.724C503.428 189.377 503.059 190.972 502.323 192.509C501.923 193.362 500.986 194.828 499.514 196.907C499.113 197.476 498.519 198.36 497.731 199.562L497.073 200.55C496.646 201.196 496.323 201.706 496.104 202.08C496.001 202.261 495.949 202.371 495.949 202.41L503.137 202.429V206.013H491.493V202.662C491.493 202.584 491.764 202.138 492.306 201.325C492.552 200.95 492.83 200.537 493.14 200.085L494.089 198.709C494.644 197.947 495.516 196.726 496.705 195.047C497.828 193.472 498.668 192.044 499.223 190.766C499.675 189.719 499.901 188.744 499.901 187.84C499.901 187.104 499.695 186.477 499.281 185.961C498.829 185.418 498.248 185.147 497.538 185.147C496.517 185.147 495.794 185.735 495.368 186.91C495.226 187.297 495.155 187.762 495.155 188.305V189.235H491.551V188.596ZM503.614 197.101L510.085 181.718H513.747V197.101H516.091V200.782H513.747V206.013H510.085V200.782H503.614V197.101ZM510.085 197.101V189.526L507.063 197.101H510.085ZM501.626 216.206H504.609L494.476 242.769H491.493L501.626 216.206ZM518.135 217.718V221.399L513.001 242.013H509.417L514.551 221.399H507.13V217.718H518.135Z" fill="#D6C9DB"/>
<path d="M269.338 379.771C270.6 386.106 264.735 391.737 262.899 392.793C261.062 393.848 248.74 398.775 241.337 398.951C233.935 399.127 224.165 383.467 228.163 381.708C232.162 379.948 259.4 378.013 262.391 378.013C265.382 378.013 269.338 379.771 269.338 379.771Z" fill="#FFC6C8"/>
<path d="M249.927 376.43C246.696 395.432 239.022 410.213 236.627 410.477C234.233 410.74 211.229 402.823 204.888 399.919C198.547 397.016 206.835 352.417 210.782 353.203C214.73 353.988 223.382 362.556 230.527 366.665C237.672 370.774 249.927 376.43 249.927 376.43Z" fill="#F9CA45"/>
<path d="M212.036 384.329C214.254 388.132 232.534 397.772 242.602 401.286C240.114 406.897 237.769 410.35 236.627 410.476C234.577 410.702 217.419 404.93 208.549 401.443C209.292 394.381 212.036 384.329 212.036 384.329Z" fill="#C7A237"/>
<path d="M269.365 378.893C269.546 386.432 262.756 387.515 254.627 385.579C246.498 383.644 233.226 365.345 227.318 357.075C221.409 348.805 210.384 334.069 208.105 332.751C205.826 331.43 200.597 330.73 196.124 323.294C191.651 315.859 197.535 300.287 199.649 298.44C201.763 296.592 219.877 302.76 221.982 305.879C224.086 308.996 220.491 325.756 221.129 327.867C221.767 329.979 237.183 347.222 243.915 351.445C250.645 355.668 269.234 373.439 269.365 378.893Z" fill="#FFC6C8"/>
<path d="M208.927 310.881C206.796 309.826 206.282 305.03 207.621 305.876C208.962 306.721 211.306 306.703 214.478 306.658C217.65 306.614 218.951 306.341 218.951 306.341C218.951 306.341 219.275 308.418 219.259 310.121C219.259 310.121 211.058 311.937 208.927 310.881Z" fill="#FF8B8C"/>
<path d="M194.822 311.971C196.114 309.569 197.111 307.748 197.111 307.748L209.572 319.742C212.979 316.787 217.148 314.091 217.148 314.091L218.245 316.046C216.229 319.458 214.472 326.672 214.433 328.431C214.433 328.431 212.519 330.543 211.451 330.719C211.451 330.719 224.782 351.833 233.352 362.214C241.871 372.534 247.706 381.46 251.724 384.329C243.62 379.656 232.567 364.422 227.317 357.075C221.409 348.805 210.385 334.069 208.105 332.75C205.827 331.43 200.598 330.73 196.126 323.294C194.351 320.345 194.218 316.117 194.822 311.971Z" fill="#FF8B8C"/>
<path d="M220.758 313.175C220.606 314.406 208.224 325.14 206.927 326.371C206.83 326.464 205.863 326.605 205.597 326.371C202.303 323.477 187.923 297.365 187.667 296.423C187.426 295.543 196.973 286.561 199.888 284.158C200.285 283.83 201.921 284.029 202.189 284.426C205.13 288.782 220.953 311.586 220.758 313.175Z" fill="#050233"/>
<path d="M219.427 313.175C219.276 314.406 206.893 325.14 205.597 326.371C204.3 327.603 186.613 297.441 186.336 296.423C186.096 295.543 196.725 286.707 199.639 284.304C200.036 283.977 200.59 284.029 200.859 284.427C203.8 288.782 219.622 311.586 219.427 313.175Z" fill="#211E88"/>
<path d="M217.342 311.41C217.201 312.561 205.617 322.603 204.405 323.756C203.192 324.908 186.645 296.691 186.386 295.738C186.161 294.916 196.104 286.649 198.831 284.401C199.202 284.095 199.721 284.143 199.971 284.515C202.724 288.59 217.525 309.923 217.342 311.41Z" fill="#00B1FA"/>
<path d="M209.916 296.693C207.998 295.537 205.644 291.622 205.431 290.301C205.22 288.983 205.351 287.794 206.381 287.53C207.413 287.267 210.586 291.402 212.168 292.633C213.75 293.865 215.676 296.416 214.891 298.132C214.107 299.847 210.592 299.187 210.215 298.924C209.839 298.66 209.916 296.693 209.916 296.693Z" fill="#FFC6C8"/>
<path d="M205.788 287.878C205.18 289.379 209.141 295.399 212.615 297.133L211.324 298.608C211.324 298.608 210.738 298.479 209.985 298.301C209.881 297.633 209.916 296.693 209.916 296.693C207.998 295.537 205.644 291.622 205.431 290.303C205.271 289.302 205.312 288.382 205.788 287.878Z" fill="#FF8B8C"/>
<path d="M214.375 302.776C211.075 301.013 208.488 301.21 206.693 300.485C204.898 299.759 204.572 296.988 205.793 296.526C207.015 296.064 214.45 297.252 216.367 298.11C218.284 298.967 219.2 302.919 219.2 302.919L214.375 302.776Z" fill="#FFC6C8"/>
<path d="M212.929 300.72C214.796 301.072 215.437 300.72 215.437 300.72C215.383 301.449 216.072 301.812 216.847 302.849L214.373 302.776C211.075 301.013 208.487 301.211 206.692 300.485C205.873 300.154 205.377 299.397 205.177 298.628C205.976 300.148 211.073 300.37 212.929 300.72Z" fill="#FF8B8C"/>
<path d="M221.981 305.878C220.221 308.314 211.588 307.258 209.847 306.994C208.107 306.73 207.015 305.631 207.193 304.523C207.551 302.287 218.959 302.684 219.901 303.036C220.843 303.388 221.981 305.878 221.981 305.878Z" fill="#FFC6C8"/>
<path d="M207.255 305.062C208.434 306.234 211.27 306.902 214.364 307.152C217.044 307.368 218.584 307.264 218.94 307.233C215.686 307.751 211.07 307.179 209.848 306.995C208.394 306.775 207.442 305.966 207.255 305.062Z" fill="#FF8B8C"/>
<path d="M181.58 340.008C199.904 349.333 202.91 348.972 210.782 353.202C218.651 357.432 216.309 401.943 215.81 408.805C215.31 415.667 213.414 442.939 214.459 450.329C215.505 457.719 219.578 485.168 221.383 489.389C223.186 493.613 226.626 500.74 221.305 504.962C215.983 509.184 204.723 512.088 180.275 510.505C155.827 508.921 129.473 493.877 128.307 491.766C127.141 489.655 139.994 450.857 140.532 443.467C141.07 436.076 142.529 430.534 143.307 427.104C144.084 423.672 136.306 407.573 135.064 397.28C133.821 386.987 122.638 358.592 124.759 353.391C126.88 348.189 146.357 342.395 159.621 335.78C172.884 329.166 181.58 340.008 181.58 340.008Z" fill="#F9CA45"/>
<path d="M199.747 351.549C196.73 361.464 190.589 370.404 182.415 376.775C172.491 374.342 162.401 369.969 154.275 363.774C163.356 370.463 173.261 376.09 183.865 379.931C192.82 372.596 198.135 363.012 199.747 351.549Z" fill="#C7A237"/>
<path d="M196.007 346.83C192.487 345.328 187.965 343.257 181.58 340.008C181.58 340.008 172.885 329.165 159.621 335.78C155.019 338.075 149.67 340.271 144.556 342.378C152.457 355.82 165.259 366.335 180.036 371.336C187.828 365.199 193.432 356.407 196.007 346.83Z" fill="#FFC6C8"/>
<path opacity="0.2" d="M128.308 491.766C127.142 489.654 139.995 450.857 140.533 443.467C141.07 436.077 142.529 430.534 143.307 427.104C144.085 423.672 136.307 407.573 135.064 397.28C134.849 395.491 134.328 393.148 133.634 390.483L141.897 384.329C146.742 397.845 149.763 421.598 154.356 427.404C158.948 433.211 170.388 435.585 170.388 435.585C170.388 435.585 159.088 438.225 154.162 437.169C154.162 437.169 148.901 458.02 148.841 468.313C148.782 478.606 149.738 494.177 149.86 496.29C149.905 497.077 149.731 499.826 149.495 502.958C137.655 498.271 128.966 492.958 128.308 491.766Z" fill="black"/>
<path d="M161.702 317.031C161.513 328.044 160.786 335.609 158.346 337.722C158.346 337.722 162.543 355.997 179.298 354.436C184.968 353.908 184.427 344.407 181.581 340.009L183.267 326.501L161.702 317.031Z" fill="#FFC6C8"/>
<path d="M159.621 335.78C161.055 332.402 161.55 325.82 161.701 317.03L183.267 326.5L182.185 335.162C178.363 336.877 159.621 335.78 159.621 335.78Z" fill="#FF8B8C"/>
<path d="M102.315 406.103C98.6007 411.206 93.6323 423.874 95.4969 429.681C97.3616 435.488 116.594 461.352 125.39 471.029C134.188 480.706 136.183 482.29 137.713 485.457C139.242 488.625 146.736 501.688 148.704 503.669C150.671 505.647 154.215 505.912 154.215 505.912C154.215 505.912 156.864 508.814 161.938 508.287C161.938 508.287 166.358 511.322 169.863 512.113C169.863 512.113 171.02 514.355 172.193 514.553C173.366 514.753 174.858 512.378 172.697 507.627C170.536 502.876 166.985 500.897 166.414 497.862C165.843 494.827 163.096 488.634 163.096 488.634C163.096 488.634 169.264 494.958 173.062 495.354C176.861 495.751 177.371 493.507 175.286 491.659C173.202 489.812 170.5 487.041 167.988 483.477C165.476 479.914 162.35 477.54 157.516 476.88C152.681 476.22 149.289 475.693 148.036 474.769C146.784 473.845 140.462 464.872 136.142 455.194C131.822 445.516 127.952 433.15 116.973 422.291L121.811 413.845L102.315 406.103Z" fill="#FFC6C8"/>
<path d="M169.701 511.509C168.765 508.833 167.045 506.55 165.152 504.519L164.401 503.78C164.18 503.55 163.789 503.26 163.703 503.124C163.324 502.642 162.997 502.006 162.633 501.434C161.936 500.247 161.259 499.038 160.488 497.872C160.856 499.243 161.349 500.551 161.901 501.841C162.173 502.498 162.468 503.107 162.882 503.756C163.202 504.181 163.409 504.27 163.656 504.546L164.362 505.275C165.312 506.249 166.212 507.273 167.12 508.294C168.021 509.324 168.863 510.394 169.701 511.509Z" fill="#FF8B8C"/>
<path d="M161.732 507.373C161.005 505.952 160.142 504.72 159.372 503.426C158.566 502.148 157.851 500.866 157.117 499.456C157.038 501.117 157.65 502.681 158.459 504.024C159.304 505.358 160.38 506.532 161.732 507.373Z" fill="#FF8B8C"/>
<path d="M157.87 507.937C155.476 507.245 154.215 505.912 154.215 505.912C154.215 505.912 150.67 505.647 148.703 503.669C147.899 502.859 146.169 500.192 144.304 497.112C144.344 497.161 146.555 499.563 148.145 501.546C150.384 504.338 153.597 503.414 153.597 503.414L153.168 500.841C153.168 500.841 155.305 506.683 157.87 507.937Z" fill="#FF8B8C"/>
<path d="M95.416 423.228C95.5204 425.635 95.5491 427.551 99.1213 433.87C103.142 440.981 127.302 470.951 132.573 476.493C137.843 482.036 137.687 482.389 140.807 491.145C139.398 488.67 138.223 486.511 137.713 485.457C136.185 482.29 134.188 480.706 125.391 471.028C116.594 461.352 97.362 435.487 95.4973 429.68C94.9559 427.993 95.003 425.72 95.416 423.228Z" fill="#FF8B8C"/>
<path d="M114.353 416.302L112.391 419.574C112.391 419.574 115.046 420.292 116.973 422.29L120.803 415.791L114.353 416.302Z" fill="#FF8B8C"/>
<path d="M137.508 398.411C142.553 388.491 144.573 372.382 140.019 363.904C135.465 355.425 126.869 352.372 124.76 353.39C122.651 354.408 116.94 367.634 111.578 373.739C106.216 379.844 91.5736 396.97 91.1301 398.411C90.6857 399.853 101.713 411.487 122.454 420.031C124.923 421.049 137.508 398.411 137.508 398.411Z" fill="#F9CA45"/>
<g opacity="0.2">
<path d="M122.124 406.103L118.815 412.888C118.815 412.888 135.114 396.548 141.881 384.355C141.061 389.442 139.535 394.427 137.507 398.412C137.507 398.412 124.923 421.05 122.453 420.032C118.904 418.57 115.663 417.016 112.691 415.44L122.124 406.103Z" fill="black"/>
</g>
<path d="M184.513 318.016C183.392 313.476 183.416 308.833 183.146 304.19C182.943 300.718 182.767 297.541 179.616 295.464C177.313 293.947 174.426 293.649 171.717 293.992C164.435 294.916 162.869 302.012 163.426 308.73C163.853 313.872 165.862 318.81 167.857 323.54C165.179 323.422 161.523 322.018 159.924 319.79C160.642 322.722 162.003 325.417 164.129 327.491C156.369 327.357 149.166 322.28 145.055 315.46C140.946 308.642 139.643 300.315 140.081 292.29C140.6 282.765 143.57 273.217 149.461 265.884C161.31 251.135 184.139 249.415 198.04 262.09C202.819 266.447 206.286 272.289 208.02 278.624C210.299 286.951 210.252 295.885 208.476 304.309C207.741 307.796 207.404 310.816 207.058 314.308C206.951 315.391 205.638 327.963 206.397 327.917C201.495 328.215 195.863 327.225 192.543 323.478C194.031 326.052 195.316 328.531 196.805 331.104C190.615 330.075 186.066 324.307 184.513 318.016Z" fill="#A072AE"/>
<path d="M159.077 300.884C156.887 299.589 154.255 298.887 152.224 300.947C149.232 303.982 153.483 318.102 159.935 314.671C159.935 314.671 169.278 327.735 176.134 331.43C182.992 335.125 187.876 333.278 190.444 330.639C193.012 328 201.768 317.173 203.344 305.697C203.906 301.606 203.304 293.557 203.429 291.841C203.813 286.563 205.813 282.229 201.649 278.087C197.443 273.902 191.617 271.37 185.687 271.161C178.218 270.897 170.753 274.254 165.806 279.856C160.342 286.047 159.395 293.038 159.077 300.884Z" fill="#FFC6C8"/>
<path d="M153.284 304.806C153.842 302.219 156.049 301.71 157.69 303.512C159.372 305.36 159.655 311.212 159.223 312.074C158.79 312.936 155.9 312.875 155.352 311.088C154.805 309.302 156.488 308.182 158.112 308.712C158.112 308.712 158.567 306.104 157.238 304.425C155.91 302.746 154.527 303.39 154.188 303.82C153.848 304.252 153.284 304.806 153.284 304.806Z" fill="#FF8B8C"/>
<path d="M171.144 293.362C171.768 292.781 172.432 292.241 173.126 291.728C173.826 291.223 174.572 290.769 175.364 290.4C176.151 290.03 176.974 289.632 177.845 289.565C178.708 289.489 179.575 289.558 180.365 289.897L180.354 290.016C179.932 290.186 179.53 290.294 179.134 290.408L177.971 290.73C177.215 290.952 176.431 291.02 175.663 291.276C174.901 291.529 174.148 291.854 173.408 292.227C172.661 292.591 171.939 293.023 171.21 293.456L171.144 293.362Z" fill="#471052"/>
<path d="M200.332 290.4C199.625 290.025 198.877 289.753 198.099 289.589C197.326 289.416 196.534 289.328 195.739 289.308C194.94 289.291 194.146 289.455 193.357 289.449C192.562 289.452 191.763 289.476 190.889 289.388L190.864 289.274C191.612 288.732 192.463 288.439 193.322 288.273C194.188 288.097 195.055 288.24 195.89 288.365C196.731 288.488 197.549 288.705 198.316 289.024C199.078 289.353 199.802 289.761 200.405 290.302L200.332 290.4Z" fill="#471052"/>
<path d="M178.98 298.002C178.95 296.886 178.388 296.034 177.724 296.099C177.06 296.164 176.545 297.123 176.574 298.239C176.604 299.355 177.166 300.207 177.83 300.141C178.495 300.077 179.008 299.118 178.98 298.002Z" fill="#471052"/>
<path d="M196.607 296.591C196.578 295.475 196.114 294.613 195.571 294.667C195.028 294.72 194.612 295.668 194.641 296.785C194.67 297.901 195.135 298.763 195.677 298.709C196.22 298.656 196.637 297.708 196.607 296.591Z" fill="#471052"/>
<path d="M184.5 308.852C186.028 309.915 188.281 309.892 189.944 308.797C189.755 309.657 189.37 310.495 188.534 310.801C187.697 311.106 186.773 311.016 186.003 310.663C185.235 310.31 184.986 309.537 184.5 308.852Z" fill="#FF8B8C"/>
<path d="M178.383 315.401C182.064 315.46 190.915 314.781 193.801 314.371C192.663 318.1 189.679 321.784 185.511 321.786C181.76 321.789 179.282 318.706 178.383 315.401Z" fill="#C47E75"/>
<path d="M181.761 320.568C183.224 320.117 184.714 320.349 185.314 320.534C185.314 320.534 187.26 319.172 190.09 320.067C188.802 321.106 187.271 321.785 185.512 321.786C184.064 321.787 182.811 321.321 181.761 320.568Z" fill="#FF8485"/>
<path d="M191.303 317.491C187.576 318.653 183.508 318.318 179.999 317.053C179.975 316.502 179.933 315.948 179.891 315.393C183.529 315.316 189.419 314.875 192.573 314.523C192.301 315.554 191.892 316.563 191.303 317.491Z" fill="white"/>
<path d="M162.758 288.737C168.763 288.481 174.72 287.159 180.268 284.85C181.324 282.407 181.36 280.24 181.518 277.585C183.027 280.352 183.924 283.45 184.08 286.599C187.576 286.372 191.089 286.184 194.586 285.958C195.565 283.187 195.684 280.333 195.529 277.399C196.711 280.155 197.304 283.627 197.707 286.598C199.818 285.848 202.492 286.943 204.698 287.337C207.43 281.25 207.251 270.222 201.47 265.606C195.841 261.109 186.063 259.885 179.182 260.881C164.547 263 153.044 275.152 153.953 290.291C154.471 298.928 158.804 307.095 165.017 313.118C161.322 305.749 160.59 296.689 162.758 288.737Z" fill="#A072AE"/>
<path d="M596 195C586.61 195 579 202.61 579 212C579 217.067 581.215 221.618 584.736 224.737C587.741 227.387 591.683 229 596 229C600.324 229 604.266 227.387 607.264 224.73C610.785 221.618 613 217.067 613 212C613 202.61 605.39 195 596 195Z" fill="#CBD5FC"/>
<path d="M605.933 223.351C605.063 222.702 603.483 221.624 601.763 220.828C600.043 220.038 599.032 218.184 599.307 216.317C599.307 216.29 599.313 216.263 599.32 216.23C599.32 216.23 603.235 213.579 602.693 210.996C602.693 210.996 602.814 211.003 602.994 210.989C604.721 210.829 604.828 208.259 603.122 207.984C603.108 207.984 603.088 207.977 603.075 207.977L603.021 207.696C603.543 205.869 604.815 200.334 600.966 200.87C600.966 200.87 598.202 196.298 592.359 198.5C586.51 200.696 588.036 205.936 588.036 205.936L588.759 208.024C587.186 208.412 587.333 210.842 589.006 210.996C589.187 211.009 589.314 211.003 589.314 211.003C588.765 213.586 592.681 216.236 592.681 216.236C592.687 216.27 592.687 216.297 592.694 216.323C592.962 218.191 591.951 220.045 590.238 220.835C588.511 221.631 586.938 222.715 586.068 223.358C585.546 223.739 585.084 224.201 584.729 224.743C587.741 227.387 591.683 229 596 229C600.324 229 604.266 227.387 607.265 224.73C606.916 224.194 606.455 223.733 605.933 223.351Z" fill="#819FDE"/>
<path d="M388.5 20C375.519 20 365 30.5195 365 43.5C365 50.5037 368.062 56.7951 372.929 61.1065C377.083 64.7703 382.532 67 388.5 67C394.477 67 399.926 64.7703 404.071 61.0972C408.938 56.7951 412 50.5037 412 43.5C412 30.5195 401.481 20 388.5 20Z" fill="#CBD5FC"/>
<path d="M402.23 59.1912C401.027 58.2938 398.844 56.8042 396.466 55.7032C394.088 54.6115 392.691 52.0487 393.071 49.4674C393.071 49.4304 393.08 49.3934 393.089 49.3471C393.089 49.3471 398.502 45.6833 397.752 42.1121C397.752 42.1121 397.919 42.1213 398.169 42.1028C400.556 41.8808 400.704 38.328 398.344 37.9487C398.326 37.9487 398.298 37.9394 398.28 37.9394L398.206 37.5509C398.927 35.0251 400.685 27.3737 395.365 28.1139C395.365 28.1139 391.544 21.7948 383.467 24.8387C375.381 27.8733 377.49 35.1176 377.49 35.1176L378.49 38.0042C376.315 38.5408 376.519 41.8993 378.832 42.1121C379.082 42.1306 379.258 42.1213 379.258 42.1213C378.499 45.6926 383.911 49.3564 383.911 49.3564C383.921 49.4026 383.921 49.4396 383.93 49.4767C384.3 52.058 382.903 54.6207 380.534 55.7125C378.147 56.8135 375.973 58.3123 374.77 59.2005C374.049 59.7278 373.41 60.3662 372.92 61.1156C377.083 64.7702 382.533 66.9999 388.5 66.9999C394.477 66.9999 399.926 64.7702 404.071 61.0971C403.59 60.357 402.952 59.7186 402.23 59.1912Z" fill="#819FDE"/>
<path d="M71 184C76.5236 184 81 188.476 81 194C81 196.98 79.6969 199.657 77.626 201.492C75.8583 203.051 73.5394 204 71 204C68.4567 204 66.1378 203.051 64.374 201.488C62.3032 199.657 61 196.98 61 194C61 188.476 65.4764 184 71 184Z" fill="#CBD5FC"/>
<path d="M65.1574 200.677C65.6693 200.295 66.5984 199.661 67.6102 199.193C68.622 198.728 69.2165 197.638 69.0551 196.539C69.0551 196.524 69.0511 196.508 69.0472 196.488C69.0472 196.488 66.7441 194.929 67.063 193.409C67.063 193.409 66.9921 193.413 66.8858 193.405C65.87 193.311 65.807 191.799 66.811 191.638C66.8189 191.638 66.8307 191.634 66.8385 191.634L66.87 191.468C66.563 190.394 65.8149 187.138 68.0787 187.453C68.0787 187.453 69.7047 184.764 73.1417 186.059C76.5826 187.35 75.685 190.433 75.685 190.433L75.2598 191.661C76.185 191.89 76.0984 193.319 75.1141 193.409C75.0078 193.417 74.933 193.413 74.933 193.413C75.2559 194.933 72.9527 196.492 72.9527 196.492C72.9488 196.512 72.9488 196.528 72.9448 196.543C72.7874 197.642 73.3819 198.732 74.3897 199.197C75.4055 199.665 76.3307 200.303 76.8425 200.681C77.1496 200.905 77.4212 201.177 77.6299 201.496C75.8582 203.051 73.5393 204 71 204C68.4567 204 66.1378 203.051 64.374 201.488C64.5787 201.173 64.8504 200.902 65.1574 200.677Z" fill="#819FDE"/>
<path d="M179.5 531C168.177 531 159 540.177 159 551.5C159 557.61 161.671 563.098 165.917 566.859C169.541 570.055 174.294 572 179.5 572C184.714 572 189.468 570.055 193.083 566.851C197.329 563.098 200 557.61 200 551.5C200 540.177 190.823 531 179.5 531Z" fill="#CBD5FC"/>
<path d="M191.477 565.188C190.427 564.405 188.523 563.106 186.449 562.146C184.374 561.193 183.156 558.958 183.487 556.706C183.487 556.673 183.495 556.641 183.503 556.601C183.503 556.601 188.224 553.405 187.57 550.289C187.57 550.289 187.716 550.298 187.934 550.281C190.016 550.088 190.145 546.988 188.087 546.658C188.071 546.658 188.047 546.649 188.03 546.649L187.966 546.31C188.595 544.107 190.129 537.433 185.488 538.078C185.488 538.078 182.155 532.566 175.109 535.221C168.055 537.868 169.895 544.188 169.895 544.188L170.767 546.706C168.87 547.174 169.048 550.104 171.065 550.289C171.283 550.306 171.437 550.298 171.437 550.298C170.775 553.413 175.496 556.609 175.496 556.609C175.504 556.649 175.504 556.682 175.513 556.714C175.835 558.966 174.617 561.201 172.551 562.154C170.468 563.114 168.572 564.422 167.522 565.196C166.893 565.656 166.336 566.213 165.908 566.867C169.54 570.055 174.294 572 179.5 572C184.713 572 189.467 570.055 193.083 566.851C192.663 566.205 192.106 565.648 191.477 565.188Z" fill="#819FDE"/>
<circle opacity="0.4" cx="382" cy="341" r="297.5" stroke="#8A8FB9"/>
<circle opacity="0.4" cx="381.5" cy="341.5" r="287" stroke="#8A8FB9"/>
<circle cx="674.5" cy="397.5" r="5.5" fill="#819FDE"/>
<circle cx="486.5" cy="572.5" r="5.5" fill="#819FDE"/>
<circle opacity="0.75" cx="382" cy="341" r="252.5" stroke="#CBD5FC"/>
<circle opacity="0.75" cx="388.5" cy="341.5" r="199" stroke="#CBD5FC"/>
<circle cx="635" cy="363" r="9" fill="#819FDE"/>
<circle cx="238" cy="97" r="9" fill="#819FDE"/>
<circle cx="398" cy="683" r="9" fill="#819FDE"/>
<circle cx="40" cy="332" r="9" fill="#819FDE"/>
<path d="M365 567H304V597.806H347.471L343.966 610L365 597.806V567Z" fill="#819FDE"/>
<path d="M573 115H551V127.179H566.678L565.414 132L573 127.179V115Z" fill="#819FDE"/>
<circle cx="381.5" cy="341.5" r="341" stroke="#CBD5FC"/>
<circle cx="283" cy="172" r="3" fill="#819FDE"/>
</svg>
